<svg width="252" height="29" viewBox="0 0 252 29" fill="none" xmlns="http://www.w3.org/2000/svg">
<path d="M0.896 0.815998H11.168V2.768H13.12V4.752H15.104V11.024H13.12V13.008H11.168V14.64H13.12V20.592H15.104V26.896H12.8V20.912H10.816V14.992H3.264V26.896H0.896V0.815998ZM10.816 12.656V10.704H12.8V5.104H10.816V3.12H3.264V12.656H10.816ZM19.912 22.896H17.896V12.656H19.912V10.704H21.896V8.72H28.168V10.704H30.12V12.656H32.104V18.96H20.264V22.576H22.216V24.528H27.816V22.576H29.8V20.592H32.104V22.896H30.12V24.88H28.168V26.896H21.896V24.88H19.912V22.896ZM29.8 16.624V13.008H27.816V11.024H22.216V13.008H20.264V16.624H29.8ZM34.896 18.608H36.912V16.624H44.816V11.024H37.264V14.992H34.896V10.704H36.912V8.72H45.168V10.704H47.12V24.528H49.104V26.896H46.8V24.88H43.184V26.896H36.912V24.88H34.896V18.608ZM42.832 24.528V22.576H44.816V18.96H37.264V24.528H42.832ZM53.912 22.896H51.896V12.656H53.912V10.704H55.896V8.72H62.168V10.704H64.12V12.656H66.104V14.992H63.8V13.008H61.816V11.024H56.216V13.008H54.264V22.576H56.216V24.528H61.816V22.576H63.8V20.592H66.104V22.896H64.12V24.88H62.168V26.896H55.896V24.88H53.912V22.896ZM73.888 11.024H69.888V8.72H73.888V2.768H76.192V8.72H82.112V11.024H76.192V24.528H82.112V26.896H75.84V24.88H73.888V11.024ZM91.816 2.768H94.152V7.088H91.816V2.768ZM91.816 8.72H94.152V26.896H91.816V8.72ZM106.896 18.96H104.912V14.992H102.896V8.72H105.264V14.64H107.216V18.608H109.2V22.576H110.832V18.608H112.816V14.64H114.8V8.72H117.104V14.992H115.12V18.96H113.168V22.896H111.184V26.896H108.848V22.896H106.896V18.96ZM121.912 22.896H119.896V12.656H121.912V10.704H123.896V8.72H130.168V10.704H132.12V12.656H134.104V18.96H122.264V22.576H124.216V24.528H129.816V22.576H131.8V20.592H134.104V22.896H132.12V24.88H130.168V26.896H123.896V24.88H121.912V22.896ZM131.8 16.624V13.008H129.816V11.024H124.216V13.008H122.264V16.624H131.8ZM137.888 16.624H150.08V18.96H137.888V16.624ZM153.896 0.815998H168.104V3.12H156.264V12.656H166.12V14.992H156.264V26.896H153.896V0.815998ZM176.816 2.768H179.152V7.088H176.816V2.768ZM176.816 8.72H179.152V26.896H176.816V8.72ZM187.896 8.72H190.264V10.704H191.896V8.72H198.168V10.704H200.12V12.656H202.104V26.896H199.8V13.008H197.816V11.024H192.216V13.008H190.264V26.896H187.896V8.72ZM204.896 22.576H206.912V20.912H204.896V18.608H206.912V16.976H204.896V10.704H206.912V8.72H215.168V10.704H216.8V8.72H219.104V11.024H217.12V16.976H215.168V18.96H207.264V20.592H217.12V22.576H219.104V26.896H217.12V28.88H206.912V26.896H204.896V22.576ZM214.816 16.624V11.024H207.264V16.624H214.816ZM216.8 26.512V22.896H207.264V26.512H216.8ZM223.912 22.896H221.896V12.656H223.912V10.704H225.896V8.72H232.168V10.704H234.12V12.656H236.104V18.96H224.264V22.576H226.216V24.528H231.816V22.576H233.8V20.592H236.104V22.896H234.12V24.88H232.168V26.896H225.896V24.88H223.912V22.896ZM233.8 16.624V13.008H231.816V11.024H226.216V13.008H224.264V16.624H233.8ZM240.88 8.72H243.184V10.704H244.816V8.72H251.088V11.024H245.168V13.008H243.184V26.896H240.88V8.72Z" fill="#61DAFB"/>
</svg>
